{
  "accessors": [
    {
      "bufferView": 2,
      "componentType": 5126,
      "count": 3868,
      "max": [
        7.5013184547424316,
        5.3933243751525879,
        3.0237135887145996
      ],
      "min": [
        -7.9268145561218262,
        0.63075786828994751,
        -3.0237135887145996
      ],
      "type": "VEC3"
    },
    {
      "bufferView": 2,
      "byteOffset": 46416,
      "componentType": 5126,
      "count": 3868,
      "max": [
        1,
        1,
        1
      ],
      "min": [
        -1,
        -1,
        -1
      ],
      "type": "VEC3"
    },
    {
      "bufferView": 3,
      "componentType": 5126,
      "count": 3868,
      "max": [
        1,
        1,
        1,
        1
      ],
      "min": [
        -1,
        -1,
        -1,
        1
      ],
      "type": "VEC4"
    },
    {
      "bufferView": 1,
      "componentType": 5126,
      "count": 3868,
      "max": [
        0.9946969747543335,
        0.99863415956497192
      ],
      "min": [
        0.0073502659797668457,
        0.0024113357067108154
      ],
      "type": "VEC2"
    },
    {
      "bufferView": 0,
      "componentType": 5125,
      "count": 9966,
      "max": [
        3867
      ],
      "min": [
        0
      ],
      "type": "SCALAR"
    },
    {
      "bufferView": 2,
      "byteOffset": 92832,
      "componentType": 5126,
      "count": 3734,
      "max": [
        5.5101017951965332,
        1.7212040424346924,
        2.2834599018096924
      ],
      "min": [
        -4.8230576515197754,
        -0.16443277895450592,
        -2.2834599018096924
      ],
      "type": "VEC3"
    },
    {
      "bufferView": 2,
      "byteOffset": 137640,
      "componentType": 5126,
      "count": 3734,
      "max": [
        1,
        1,
        1
      ],
      "min": [
        -1,
        -1,
        -1
      ],
      "type": "VEC3"
    },
    {
      "bufferView": 3,
      "byteOffset": 61888,
      "componentType": 5126,
      "count": 3734,
      "max": [
        1,
        1,
        1,
        1
      ],
      "min": [
        -1,
        -0.82348543405532837,
        -1,
        -1
      ],
      "type": "VEC4"
    },
    {
      "bufferView": 1,
      "byteOffset": 30944,
      "componentType": 5126,
      "count": 3734,
      "max": [
        0.98693037033081055,
        0.99459433555603027
      ],
      "min": [
        0.0077030695974826813,
        0.011242700740695
      ],
      "type": "VEC2"
    },
    {
      "bufferView": 0,
      "byteOffset": 39864,
      "componentType": 5125,
      "count": 10416,
      "max": [
        3733
      ],
      "min": [
        0
      ],
      "type": "SCALAR"
    },
    {
      "bufferView": 2,
      "byteOffset": 182448,
      "componentType": 5126,
      "count": 952,
      "max": [
        3.4085114002227783,
        7.4822745323181152,
        2.6287813186645508
      ],
      "min": [
        -8.2794284820556641,
        1.681183934211731,
        -2.7117514610290527
      ],
      "type": "VEC3"
    },
    {
      "bufferView": 2,
      "byteOffset": 193872,
      "componentType": 5126,
      "count": 952,
      "max": [
        1,
        1,
        1
      ],
      "min": [
        -1,
        -1,
        -1
      ],
      "type": "VEC3"
    },
    {
      "bufferView": 3,
      "byteOffset": 121632,
      "componentType": 5126,
      "count": 952,
      "max": [
        1,
        1,
        1,
        1
      ],
      "min": [
        -1,
        -1,
        -1,
        1
      ],
      "type": "VEC4"
    },
    {
      "bufferView": 1,
      "byteOffset": 60816,
      "componentType": 5126,
      "count": 952,
      "max": [
        0.99323612451553345,
        0.99150615930557251
      ],
      "min": [
        0.0074552521109580994,
        0.0070656538009643555
      ],
      "type": "VEC2"
    },
    {
      "bufferView": 0,
      "byteOffset": 81528,
      "componentType": 5125,
      "count": 1800,
      "max": [
        951
      ],
      "min": [
        0
      ],
      "type": "SCALAR"
    },
    {
      "bufferView": 2,
      "byteOffset": 205296,
      "componentType": 5126,
      "count": 320,
      "max": [
        7.284731388092041,
        5.1136574745178223,
        2.2405357360839844
      ],
      "min": [
        4.2679085731506348,
        3.1928553581237793,
        -2.2405357360839844
      ],
      "type": "VEC3"
    },
    {
      "bufferView": 2,
      "byteOffset": 209136,
      "componentType": 5126,
      "count": 320,
      "max": [
        0.99377363920211792,
        0.99097657203674316,
        0.99098050594329834
      ],
      "min": [
        -0.99985367059707642,
        -0.99049639701843262,
        -0.99098050594329834
      ],
      "type": "VEC3"
    },
    {
      "bufferView": 3,
      "byteOffset": 136864,
      "componentType": 5126,
      "count": 320,
      "max": [
        0.88545709848403931,
        0.9995606541633606,
        0.9909629225730896,
        1
      ],
      "min": [
        -0.97756725549697876,
        -0.99098020792007446,
        -0.99096274375915527,
        1
      ],
      "type": "VEC4"
    },
    {
      "bufferView": 1,
      "byteOffset": 68432,
      "componentType": 5126,
      "count": 320,
      "max": [
        0.96532553434371948,
        0.81815391778945923
      ],
      "min": [
        0.019088983535766602,
        0.19490304589271545
      ],
      "type": "VEC2"
    },
    {
      "bufferView": 0,
      "byteOffset": 88728,
      "componentType": 5125,
      "count": 1092,
      "max": [
        319
      ],
      "min": [
        0
      ],
      "type": "SCALAR"
    }
  ],
  "asset": {
    "extras": {
      "author": "Jay (https://sketchfab.com/Javaad.Ghasemian)",
      "license": "CC-BY-4.0 (http://creativecommons.org/licenses/by/4.0/)",
      "source": "https://sketchfab.com/models/be8749465c8e408cabf7b1b57feedaf4",
      "title": "Truck (game ready)-(Low poly)"
    },
    "generator": "Sketchfab-3.41.1",
    "version": "2.0"
  },
  "bufferViews": [
    {
      "buffer": 0,
      "byteLength": 93096,
      "byteOffset": 0,
      "name": "floatBufferViews",
      "target": 34963
    },
    {
      "buffer": 0,
      "byteLength": 70992,
      "byteOffset": 93096,
      "byteStride": 8,
      "name": "floatBufferViews",
      "target": 34962
    },
    {
      "buffer": 0,
      "byteLength": 212976,
      "byteOffset": 164088,
      "byteStride": 12,
      "name": "floatBufferViews",
      "target": 34962
    },
    {
      "buffer": 0,
      "byteLength": 141984,
      "byteOffset": 377064,
      "byteStride": 16,
      "name": "floatBufferViews",
      "target": 34962
    }
  ],
  "buffers": [
    {
      "byteLength": 519048,
      "uri": "scene.bin"
    }
  ],
  "images": [
    {
      "uri": "textures/Back_metallicRoughness.png"
    },
    {
      "uri": "textures/Back_normal.png"
    },
    {
      "uri": "textures/Back_baseColor.png"
    },
    {
      "uri": "textures/Body_metallicRoughness.png"
    },
    {
      "uri": "textures/Body_baseColor.png"
    },
    {
      "uri": "textures/Body_normal.png"
    },
    {
      "uri": "textures/Body_emissive.png"
    },
    {
      "uri": "textures/Tire_metallicRoughness.png"
    },
    {
      "uri": "textures/Tire_normal.png"
    },
    {
      "uri": "textures/Tire_baseColor.png"
    },
    {
      "uri": "textures/Glass_metallicRoughness.png"
    },
    {
      "uri": "textures/Glass_baseColor.png"
    }
  ],
  "materials": [
    {
      "doubleSided": false,
      "emissiveFactor": [
        1,
        1,
        1
      ],
      "emissiveTexture": {
        "index": 6,
        "texCoord": 0
      },
      "name": "Body",
      "normalTexture": {
        "index": 5,
        "scale": 1,
        "texCoord": 0
      },
      "occlusionTexture": {
        "index": 3,
        "strength": 0.5,
        "texCoord": 0
      },
      "pbrMetallicRoughness": {
        "baseColorFactor": [
          1,
          1,
          1,
          1
        ],
        "baseColorTexture": {
          "index": 4,
          "texCoord": 0
        },
        "metallicFactor": 1,
        "metallicRoughnessTexture": {
          "index": 3,
          "texCoord": 0
        },
        "roughnessFactor": 1
      }
    },
    {
      "doubleSided": false,
      "name": "Tire",
      "normalTexture": {
        "index": 8,
        "scale": 1,
        "texCoord": 0
      },
      "occlusionTexture": {
        "index": 7,
        "strength": 0.59999999999999998,
        "texCoord": 0
      },
      "pbrMetallicRoughness": {
        "baseColorFactor": [
          1,
          1,
          1,
          1
        ],
        "baseColorTexture": {
          "index": 9,
          "texCoord": 0
        },
        "metallicFactor": 1,
        "metallicRoughnessTexture": {
          "index": 7,
          "texCoord": 0
        },
        "roughnessFactor": 1
      }
    },
    {
      "doubleSided": false,
      "name": "Back",
      "normalTexture": {
        "index": 1,
        "scale": 1,
        "texCoord": 0
      },
      "pbrMetallicRoughness": {
        "baseColorFactor": [
          1,
          1,
          1,
          1
        ],
        "baseColorTexture": {
          "index": 2,
          "texCoord": 0
        },
        "metallicFactor": 1,
        "metallicRoughnessTexture": {
          "index": 0,
          "texCoord": 0
        },
        "roughnessFactor": 1
      }
    },
    {
      "alphaMode": "BLEND",
      "doubleSided": true,
      "name": "Glass",
      "pbrMetallicRoughness": {
        "baseColorFactor": [
          1,
          1,
          1,
          0.90000000000000002
        ],
        "baseColorTexture": {
          "index": 11,
          "texCoord": 0
        },
        "metallicFactor": 1,
        "metallicRoughnessTexture": {
          "index": 10,
          "texCoord": 0
        },
        "roughnessFactor": 1
      }
    }
  ],
  "meshes": [
    {
      "name": "pCylinder20_Body_0",
      "primitives": [
        {
          "attributes": {
            "NORMAL": 1,
            "POSITION": 0,
            "TANGENT": 2,
            "TEXCOORD_0": 3
          },
          "indices": 4,
          "material": 0,
          "mode": 4
        }
      ]
    },
    {
      "name": "pCylinder21_Tire_0",
      "primitives": [
        {
          "attributes": {
            "NORMAL": 6,
            "POSITION": 5,
            "TANGENT": 7,
            "TEXCOORD_0": 8
          },
          "indices": 9,
          "material": 1,
          "mode": 4
        }
      ]
    },
    {
      "name": "pCube3_Back_0",
      "primitives": [
        {
          "attributes": {
            "NORMAL": 11,
            "POSITION": 10,
            "TANGENT": 12,
            "TEXCOORD_0": 13
          },
          "indices": 14,
          "material": 2,
          "mode": 4
        }
      ]
    },
    {
      "name": "pCube6_Glass_0",
      "primitives": [
        {
          "attributes": {
            "NORMAL": 16,
            "POSITION": 15,
            "TANGENT": 17,
            "TEXCOORD_0": 18
          },
          "indices": 19,
          "material": 3,
          "mode": 4
        }
      ]
    }
  ],
  "nodes": [
    {
      "children": [
        1
      ],
      "name": "RootNode (gltf orientation matrix)",
      "rotation": [
        -0.70710678118654746,
        -0,
        -0,
        0.70710678118654757
      ]
    },
    {
      "children": [
        2
      ],
      "name": "RootNode (model correction matrix)"
    },
    {
      "children": [
        3
      ],
      "matrix": [
        1,
        0,
        0,
        0,
        0,
        0,
        1,
        0,
        0,
        -1,
        0,
        0,
        0,
        0,
        0,
        1
      ],
      "name": "d3241f34407e40139a975af007fc5417.fbx"
    },
    {
      "children": [
        4,
        6,
        8,
        10
      ],
      "name": "RootNode"
    },
    {
      "children": [
        5
      ],
      "name": "pCylinder20"
    },
    {
      "mesh": 0,
      "name": "pCylinder20_Body_0"
    },
    {
      "children": [
        7
      ],
      "name": "pCylinder21"
    },
    {
      "mesh": 1,
      "name": "pCylinder21_Tire_0"
    },
    {
      "children": [
        9
      ],
      "name": "pCube3"
    },
    {
      "mesh": 2,
      "name": "pCube3_Back_0"
    },
    {
      "children": [
        11
      ],
      "name": "pCube6"
    },
    {
      "mesh": 3,
      "name": "pCube6_Glass_0"
    }
  ],
  "samplers": [
    {
      "magFilter": 9729,
      "minFilter": 9987,
      "wrapS": 10497,
      "wrapT": 10497
    }
  ],
  "scene": 0,
  "scenes": [
    {
      "name": "OSG_Scene",
      "nodes": [
        0
      ]
    }
  ],
  "textures": [
    {
      "sampler": 0,
      "source": 0
    },
    {
      "sampler": 0,
      "source": 1
    },
    {
      "sampler": 0,
      "source": 2
    },
    {
      "sampler": 0,
      "source": 3
    },
    {
      "sampler": 0,
      "source": 4
    },
    {
      "sampler": 0,
      "source": 5
    },
    {
      "sampler": 0,
      "source": 6
    },
    {
      "sampler": 0,
      "source": 7
    },
    {
      "sampler": 0,
      "source": 8
    },
    {
      "sampler": 0,
      "source": 9
    },
    {
      "sampler": 0,
      "source": 10
    },
    {
      "sampler": 0,
      "source": 11
    }
  ]
}

